<svg id="Layer_1" data-name="Layer 1" xmlns="http://www.w3.org/2000/svg" viewBox="0 0 1280 375"><defs><style>.cls-2{fill:#89c145}</style></defs><path d="M142.56 31.52c0 3.62-1.2 28.12-1.6 31.73-2.41.8-3.22.8-4.82.4C133.33 52 124.09 11 78.31 11c-22.49 0-51 14.06-51 41.77 0 20.92 19.69 33.37 48.59 48.63 58.23 30.52 84.74 44.58 84.74 87.14 0 16.87-7.63 76.31-89.16 76.31C40.56 264.85 0 253.2 0 241.56c0-4 2.41-33.34 4-49.8 0-3.22.4-5.62 4-5.62s4 4 4 5.62C14 213.44 36.49 254 79.87 254c37.75 0 56.22-27.71 56.22-49 0-30.52-32.13-47-56.62-59.84-35.7-18.46-74.25-38.54-74.25-79.5C5.22 21.48 46.18.2 84.74.2c34.13 0 48.19 10.44 56.26 16.46.36 2.82 1.56 12.86 1.56 14.86zm43.36 318.06c4.42-2 5.22-3.21 7.63-5.62a15.23 15.23 0 001.21-7.23c0-3.21-2.41-193.56-3.21-202.4-.81-9.64-4.82-12.05-23.7-15.26l1.21-6c27.71-11.67 33.33-16.07 41.76-28.14 2-.8 2.81-.8 6.43.41-.4 14-.4 16.46 0 38.15 28.91-21.69 53-21.69 62.65-21.69 37.34 0 71.88 28.11 71.88 75.9 0 57-45.38 83.94-85.14 83.94-13.65 0-17.67-1.21-47-12-.41 8.43-1.61 89.55 4 96.78 1.61 2 4.82 2.41 8.44 2.81 22.89 2.41 24.49 4 26.1 11.65-26.1.4-58.63.4-92 0-.41-4.82-.41-5.22 0-7.23zm33.33-124.89c2 8 7.63 27.71 46.59 27.71 26.5 0 58.23-19.28 58.23-61.45 0-35.74-19.68-70.28-65.06-70.28a61.75 61.75 0 00-41.76 16.07c-.4 4.82-.4 78.31 2 87.95zm197.98 11.24c0 8 1.2 8.84 5.22 11.65 36.94 2.81 43 3.61 43 8 0 .8-.4 1.61-1.61 3.21l-30.12-.4-11.64.4-20.48-.4c-6.83 0-35.75 1.21-43.38 1.61a7.51 7.51 0 01-.8-2.81 9.32 9.32 0 011.61-4c4.41-1.2 24.9-4.42 27.31-5.22 4.41-1.2 4.41-3.21 4.41-18.07 0-13.25 0-80.32-2.81-87.55-1.6-3.61-5.22-5.22-9.23-5.62-11.65-2-12.86-2-16.87-3.61l.8-5.63c20.48-8.43 32.93-13.65 44.18-37.75h6.82c.81 6.83.81 10 .81 37.75l.4 5.63v7.22h.8c9.64-18.47 31.33-42.56 48.19-42.56 14.46 0 19.68 12.44 19.68 20.08 0 12.84-12.05 15.26-16.06 15.26s-21.29-6.43-24.9-6.43c-7.23 0-12 4.82-16.07 11.25-4.41 6.82-10.84 17.26-10.84 26.5 0 7.63 1.21 42.17 1.21 49.39zM572.24 97.79c56.62 0 85.93 45.38 85.93 85.53 0 32.53-28.11 80.32-91.16 80.32-48.59 0-85.13-37.35-85.13-83.93 0-15.66 10.44-81.92 90.36-81.92zm55.41 83.12c0-18.87-8-75.5-57-75.5-58.23 0-58.23 64.26-58.23 78.31 0 54.22 28.91 72.29 56.22 72.29 34.92-.01 59.01-28.91 59.01-75.1zm193.56 29.32c0 4.42.4 22.89.8 26.91 2 4 2.41 4.42 12.45 4.42 5.62 0 6.43.4 16.47 1.2v6c-8 1.61-25.71 6-35.34 8.84l-18.07 5.62a69.5 69.5 0 01-1.21-8.43v-21.27c-34.13 23.3-43.77 30.12-61 30.12-10 0-33.74-3.61-43.37-34.54-3.21-10.44-3.21-21.68-3.21-32.92 0-3.22.8-17.27.8-20.08l-.4-48.6c0-8 0-8.83-2.81-11.24-3.62-.81-20.89-4.42-23.3-5.62l.4-6c5.63 0 49.4 0 51 .4.8 11.65-.81 65.46-.81 76.31 0 45.78 2.41 51.8 14.46 57.82a42.65 42.65 0 0018.07 4.42c18.88 0 38.55-10.44 49.8-20.88.4-4.42 2-61.44 2-66.66 0-36.55-1.21-38.15-12-41-4-.8-21.69-3.21-25.3-4 0-.4-1.61-2.41-1.61-4a4.18 4.18 0 01.81-2c3.21-.4 58.63-.8 63.05-.4 0 14.06-1.61 77.11-1.61 89.56zm52.6-86.34c-2.81 0-14.06.4-20.89.4-1.2 0-4.41 0-4.41-3.21 0-3.62 1.6-4.82 10.44-8.44C862.56 111 875 103.41 883 89.35c2.41-3.21 8.84-20.88 10.44-24.09h6c.8 18.87.8 21.28.4 43 8.43.4 45.78-1.21 53.41-1.21.81 6.83.81 8.43-.8 14.46-2 0-47 1.2-52.21 1.61-1.2 4-1.6 5.22-1.6 11.64 0 4.42.8 24.9.8 29.32 0 8-.8 44.17-.8 52.61 0 25.3 6.82 33.73 20.88 33.73 5.62 0 19.28-1.21 30.52-9.64 2.41 0 6.83-.4 5.62 5.22-15.26 16.87-32.93 17.67-48.19 17.67-34.14 0-34.14-24.9-34.14-54.62 0-8 .81-39 .81-45z" fill="#666"/><path class="cls-2" d="M1075.42 100.39s1.27 80.88-29.29 159.4c-16.53-.31-32.37-5.14-42-18.14-26-35.14-23.82-73.58-10.72-108 8.35-22 31.08-40.41 43.78-57.27 21.16-28.1 32.18-48.39 32.18-48.39 85.54 84.44 66.23 185.36 39 213.67-5.94 6.17-26.1 14.78-47.84 17.41 32.01-78.47 14.89-158.68 14.89-158.68z"/><path class="cls-2" d="M1069.37 27.94c85.54 84.44 66.23 185.36 39 213.67-5.94 6.17-26.1 14.78-47.84 17.41 32-78.42 14.86-158.63 14.86-158.63s1.27 80.88-29.29 159.4c-16.53-.31-32.37-5.14-42-18.14-26-35.14-23.82-73.58-10.72-108 8.35-22 31.08-40.41 43.78-57.27 21.16-28.1 32.18-48.39 32.18-48.39"/><path class="cls-2" d="M1269.9 21.69s-24.07 14.72-63.66 31.48c-23.75 10-59.08 15.65-81.35 33.77l-1.75 1.45a190 190 0 0116.93 66.88 163.88 163.88 0 01-5.69 55.38 111.26 111.26 0 01-10.21 24.35c67.83-61.4 107.78-133 107.78-133s-31 95.35-112.82 158.73c24.6 10.54 51.2 13.77 61.25 10.88 46.1-13.23 128.3-108.18 89.52-249.92z"/><path d="M381.26 373.5v-29.22h-34.84v29.22h-11.74v-67h11.74v27.4h34.84v-27.4H393v67zm30.02 0v-67h45.87v10.34H423v17.36h33.43v10.34H423v18.58h34.13v10.38zm108.82 0l-4.92-12.85h-30.72l-4.92 12.85h-13.35l26.3-67h14.66l26.3 67zm-20.28-55.12l-12 31.93h24.09zm44.98 55.12v-67h11.74v56.62h29.52v10.38zm61.84 0v-56.62h-20.28v-10.34h52.3v10.34h-20.28v56.62zm92.56 0v-29.22h-34.83v29.22h-11.75v-67h11.75v27.4h34.83v-27.4h11.74v67zm56.8-33.43c0-21 15.76-34.64 35.14-34.64 13.05 0 21.58 6.23 27 14l-9.63 5.42a21.34 21.34 0 00-17.37-8.94c-13.25 0-23.09 10.14-23.09 24.2s9.84 24.29 23.09 24.29a24.56 24.56 0 0015.86-6v-10.5h-20v-10.34h31.72v25.09a36.3 36.3 0 01-27.6 12.15c-19.34 0-35.12-13.75-35.12-34.73zm117.28 33.43l-14.86-25h-11.64v25H835v-67h29.41c13.26 0 21.89 8.63 21.89 21 0 11.94-7.83 18.37-15.86 19.67l16.36 26.31zm1-46c0-6.43-4.82-10.64-11.44-10.64h-16.06v21.28h16.06c6.62.02 11.44-4.2 11.44-10.62zm24.8 12.57c0-20 14.16-34.64 34.23-34.64s34.23 14.66 34.23 34.64-14.15 34.63-34.23 34.63-34.23-14.7-34.23-34.63zm56.42 0c0-13.86-8.74-24.2-22.19-24.2s-22.18 10.34-22.18 24.2 8.63 24.19 22.18 24.19 22.19-10.44 22.19-24.19zm27.41 7.02v-40.55h11.84v40.15c0 10.64 5.93 17.57 17.17 17.57s17.07-6.93 17.07-17.57v-40.15h11.84V347c0 16.67-9.53 27.71-28.91 27.71s-29.01-11.15-29.01-27.62zm76.2 26.41v-67h29.41c14 0 21.88 9.64 21.88 21s-7.92 21-21.88 21h-17.67v25zm39.25-46c0-6.43-4.82-10.64-11.45-10.64h-16.06v21.28h16.06c6.63.02 11.45-4.2 11.45-10.62z" fill="#999"/></svg>